<mxfile host="65bd71144e">
    <diagram id="D4_lL9Y2LXdmtOPD5QcQ" name="Página-1">
        <mxGraphModel dx="1315" dy="579" grid="1" gridSize="10" guides="1" tooltips="1" connect="1" arrows="1" fold="1" page="1" pageScale="1" pageWidth="827" pageHeight="1169" math="0" shadow="0">
            <root>
                <mxCell id="0"/>
                <mxCell id="1" parent="0"/>
                <mxCell id="28" value="" style="rounded=0;whiteSpace=wrap;html=1;fillColor=#d5e8d4;strokeColor=#82b366;fillStyle=auto;" vertex="1" parent="1">
                    <mxGeometry x="104" y="330" width="620" height="510" as="geometry"/>
                </mxCell>
                <mxCell id="67" value="" style="rounded=1;whiteSpace=wrap;html=1;glass=0;fillStyle=auto;strokeColor=#82b366;fontSize=9;fillColor=#C3E8C4;" vertex="1" parent="1">
                    <mxGeometry x="370" y="340" width="90" height="35" as="geometry"/>
                </mxCell>
                <mxCell id="20" value="" style="rounded=0;whiteSpace=wrap;html=1;fillColor=#dae8fc;strokeColor=#6c8ebf;fillStyle=auto;" vertex="1" parent="1">
                    <mxGeometry x="364" y="600" width="340" height="130" as="geometry"/>
                </mxCell>
                <mxCell id="2" value="indentificação de&lt;br&gt;QR Code" style="rounded=0;whiteSpace=wrap;html=1;" vertex="1" parent="1">
                    <mxGeometry x="367" y="400" width="120" height="60" as="geometry"/>
                </mxCell>
                <mxCell id="3" value="Leitura&amp;nbsp;" style="rounded=0;whiteSpace=wrap;html=1;" vertex="1" parent="1">
                    <mxGeometry x="568" y="400" width="120" height="60" as="geometry"/>
                </mxCell>
                <mxCell id="4" value="Decodificação de&amp;nbsp;&lt;br&gt;QR code" style="rounded=0;whiteSpace=wrap;html=1;" vertex="1" parent="1">
                    <mxGeometry x="157" y="510" width="120" height="60" as="geometry"/>
                </mxCell>
                <mxCell id="7" value="" style="endArrow=classic;html=1;entryX=0;entryY=0.5;entryDx=0;entryDy=0;strokeWidth=1;exitX=1;exitY=0.5;exitDx=0;exitDy=0;startArrow=none;startFill=0;endFill=1;" edge="1" parent="1" source="2" target="3">
                    <mxGeometry width="50" height="50" relative="1" as="geometry">
                        <mxPoint x="487" y="440" as="sourcePoint"/>
                        <mxPoint x="507" y="380" as="targetPoint"/>
                    </mxGeometry>
                </mxCell>
                <mxCell id="8" value="" style="endArrow=classic;html=1;entryX=0.5;entryY=0;entryDx=0;entryDy=0;exitX=0.5;exitY=1;exitDx=0;exitDy=0;endFill=1;" edge="1" parent="1" source="3" target="4">
                    <mxGeometry width="50" height="50" relative="1" as="geometry">
                        <mxPoint x="717" y="440" as="sourcePoint"/>
                        <mxPoint x="777" y="429.5" as="targetPoint"/>
                        <Array as="points">
                            <mxPoint x="627" y="490"/>
                            <mxPoint x="217" y="490"/>
                        </Array>
                    </mxGeometry>
                </mxCell>
                <mxCell id="9" value="&lt;p style=&quot;line-height: 120%;&quot;&gt;Estabelecer conexão&lt;br&gt;com o BD&lt;/p&gt;" style="rounded=0;whiteSpace=wrap;html=1;" vertex="1" parent="1">
                    <mxGeometry x="347" y="510" width="130" height="60" as="geometry"/>
                </mxCell>
                <mxCell id="10" value="Requisitar autenticação de dados" style="rounded=0;whiteSpace=wrap;html=1;" vertex="1" parent="1">
                    <mxGeometry x="538" y="510" width="150" height="60" as="geometry"/>
                </mxCell>
                <mxCell id="11" value="Escaneia dados identicos" style="rounded=0;whiteSpace=wrap;html=1;" vertex="1" parent="1">
                    <mxGeometry x="374" y="650" width="120" height="60" as="geometry"/>
                </mxCell>
                <mxCell id="14" value="" style="endArrow=none;html=1;exitX=0;exitY=0.5;exitDx=0;exitDy=0;entryX=1;entryY=0.5;entryDx=0;entryDy=0;startArrow=classic;startFill=1;" edge="1" parent="1" source="10" target="9">
                    <mxGeometry width="50" height="50" relative="1" as="geometry">
                        <mxPoint x="547" y="690" as="sourcePoint"/>
                        <mxPoint x="587" y="640" as="targetPoint"/>
                    </mxGeometry>
                </mxCell>
                <mxCell id="15" value="" style="endArrow=none;html=1;entryX=0.5;entryY=1;entryDx=0;entryDy=0;exitX=0.5;exitY=0;exitDx=0;exitDy=0;startArrow=classic;startFill=1;" edge="1" parent="1" source="11" target="10">
                    <mxGeometry width="50" height="50" relative="1" as="geometry">
                        <mxPoint x="327" y="690" as="sourcePoint"/>
                        <mxPoint x="357" y="640" as="targetPoint"/>
                        <Array as="points">
                            <mxPoint x="434" y="590"/>
                            <mxPoint x="613" y="590"/>
                        </Array>
                    </mxGeometry>
                </mxCell>
                <mxCell id="19" value="&lt;h1&gt;&lt;font style=&quot;font-size: 15px;&quot;&gt;&lt;b&gt;Arduino&lt;/b&gt;&lt;/font&gt;&lt;/h1&gt;" style="text;html=1;strokeColor=none;fillColor=none;align=center;verticalAlign=middle;whiteSpace=wrap;rounded=0;" vertex="1" parent="1">
                    <mxGeometry x="384" y="340" width="60" height="30" as="geometry"/>
                </mxCell>
                <mxCell id="22" value="" style="endArrow=classic;html=1;entryX=0;entryY=0.5;entryDx=0;entryDy=0;exitX=1;exitY=0.5;exitDx=0;exitDy=0;startArrow=none;endFill=1;" edge="1" parent="1" source="25" target="23">
                    <mxGeometry width="50" height="50" relative="1" as="geometry">
                        <mxPoint x="562" y="639.5" as="sourcePoint"/>
                        <mxPoint x="662" y="639.5" as="targetPoint"/>
                        <Array as="points"/>
                    </mxGeometry>
                </mxCell>
                <mxCell id="23" value="&lt;font style=&quot;font-size: 12px;&quot;&gt;Enviar autenticação&lt;/font&gt;" style="rounded=0;whiteSpace=wrap;html=1;fillStyle=auto;fontSize=15;fillColor=default;" vertex="1" parent="1">
                    <mxGeometry x="576" y="650" width="120" height="60" as="geometry"/>
                </mxCell>
                <mxCell id="52" style="edgeStyle=none;html=1;exitX=0;exitY=0.5;exitDx=0;exitDy=0;strokeWidth=1;fontSize=12;fontColor=#000000;entryX=0;entryY=0.5;entryDx=0;entryDy=0;" edge="1" parent="1" source="35" target="45">
                    <mxGeometry relative="1" as="geometry">
                        <Array as="points">
                            <mxPoint x="124" y="680"/>
                            <mxPoint x="124" y="550"/>
                            <mxPoint x="124" y="430"/>
                        </Array>
                    </mxGeometry>
                </mxCell>
                <mxCell id="35" value="&lt;font style=&quot;font-size: 12px;&quot;&gt;Reproduz aviso com o buzzer&lt;/font&gt;" style="rounded=0;whiteSpace=wrap;html=1;fillStyle=auto;fontSize=8;" vertex="1" parent="1">
                    <mxGeometry x="157" y="650" width="120" height="60" as="geometry"/>
                </mxCell>
                <mxCell id="36" value="" style="endArrow=none;html=1;fontSize=12;exitX=1;exitY=0.5;exitDx=0;exitDy=0;startArrow=none;" edge="1" parent="1" source="37" target="11">
                    <mxGeometry width="50" height="50" relative="1" as="geometry">
                        <mxPoint x="322" y="820" as="sourcePoint"/>
                        <mxPoint x="372" y="770" as="targetPoint"/>
                        <Array as="points"/>
                    </mxGeometry>
                </mxCell>
                <mxCell id="39" value="&lt;h3&gt;Banco de&amp;nbsp;dados&lt;/h3&gt;" style="text;html=1;strokeColor=none;fillColor=none;align=center;verticalAlign=middle;whiteSpace=wrap;rounded=0;fillStyle=auto;fontSize=12;fontStyle=1" vertex="1" parent="1">
                    <mxGeometry x="467" y="600" width="135" height="30" as="geometry"/>
                </mxCell>
                <mxCell id="41" value="&lt;font color=&quot;#000000&quot;&gt;Destrava catraca&lt;/font&gt;" style="rounded=0;whiteSpace=wrap;html=1;fillStyle=auto;fontSize=12;fillColor=#f5f5f5;fontColor=#333333;strokeColor=#FF0000;" vertex="1" parent="1">
                    <mxGeometry x="157" y="760" width="120" height="60" as="geometry"/>
                </mxCell>
                <mxCell id="43" value="" style="endArrow=none;html=1;strokeWidth=1;fontSize=12;exitX=1;exitY=0.5;exitDx=0;exitDy=0;entryX=0;entryY=0.5;entryDx=0;entryDy=0;startArrow=classic;startFill=1;" edge="1" parent="1" source="41" target="44">
                    <mxGeometry width="50" height="50" relative="1" as="geometry">
                        <mxPoint x="467" y="1045" as="sourcePoint"/>
                        <mxPoint x="517" y="995" as="targetPoint"/>
                    </mxGeometry>
                </mxCell>
                <mxCell id="44" value="&lt;font style=&quot;font-size: 12px;&quot;&gt;Reproduz aviso com o buzzer&lt;/font&gt;" style="rounded=0;whiteSpace=wrap;html=1;fillStyle=auto;fontSize=8;fillColor=default;" vertex="1" parent="1">
                    <mxGeometry x="576" y="760" width="120" height="60" as="geometry"/>
                </mxCell>
                <mxCell id="45" value="Reproduz aviso com o buzzer" style="rounded=0;whiteSpace=wrap;html=1;fillStyle=auto;fontSize=12;fillColor=#f5f5f5;fontColor=#333333;strokeColor=#00CC00;" vertex="1" parent="1">
                    <mxGeometry x="157" y="400" width="120" height="60" as="geometry"/>
                </mxCell>
                <mxCell id="46" value="" style="endArrow=none;html=1;strokeWidth=1;fontSize=12;fontColor=#000000;entryX=1;entryY=0.5;entryDx=0;entryDy=0;jumpStyle=none;endFill=0;startArrow=classic;startFill=1;" edge="1" parent="1" source="2" target="45">
                    <mxGeometry width="50" height="50" relative="1" as="geometry">
                        <mxPoint x="167" y="510" as="sourcePoint"/>
                        <mxPoint x="217" y="460" as="targetPoint"/>
                    </mxGeometry>
                </mxCell>
                <mxCell id="47" value="" style="endArrow=none;html=1;entryX=1;entryY=0.5;entryDx=0;entryDy=0;exitX=0;exitY=0.5;exitDx=0;exitDy=0;endFill=0;startArrow=classic;startFill=1;" edge="1" parent="1" source="9">
                    <mxGeometry width="50" height="50" relative="1" as="geometry">
                        <mxPoint x="337" y="550" as="sourcePoint"/>
                        <mxPoint x="277" y="539.41" as="targetPoint"/>
                    </mxGeometry>
                </mxCell>
                <mxCell id="51" value="" style="endArrow=none;html=1;strokeWidth=1;fontSize=12;fontColor=#000000;exitX=0.5;exitY=0;exitDx=0;exitDy=0;entryX=0.5;entryY=1;entryDx=0;entryDy=0;endFill=0;startArrow=classic;startFill=1;" edge="1" parent="1" source="44" target="23">
                    <mxGeometry width="50" height="50" relative="1" as="geometry">
                        <mxPoint x="617" y="780" as="sourcePoint"/>
                        <mxPoint x="617" y="710" as="targetPoint"/>
                    </mxGeometry>
                </mxCell>
                <mxCell id="53" value="" style="endArrow=none;html=1;fontSize=12;exitX=1;exitY=0.5;exitDx=0;exitDy=0;endFill=0;startArrow=classic;startFill=1;" edge="1" parent="1" source="35" target="37">
                    <mxGeometry width="50" height="50" relative="1" as="geometry">
                        <mxPoint x="277" y="680" as="sourcePoint"/>
                        <mxPoint x="381" y="680" as="targetPoint"/>
                        <Array as="points"/>
                    </mxGeometry>
                </mxCell>
                <mxCell id="37" value="&lt;span style=&quot;font-size: 8px;&quot;&gt;Não são identicos&lt;br&gt;&lt;/span&gt;" style="text;html=1;strokeColor=none;fillColor=none;align=center;verticalAlign=middle;whiteSpace=wrap;rounded=0;fillStyle=auto;fontSize=12;" vertex="1" parent="1">
                    <mxGeometry x="297" y="675" width="70" height="10" as="geometry"/>
                </mxCell>
                <mxCell id="60" value="" style="endArrow=none;html=1;entryX=0;entryY=0.5;entryDx=0;entryDy=0;exitX=1;exitY=0.5;exitDx=0;exitDy=0;" edge="1" parent="1" source="11" target="25">
                    <mxGeometry width="50" height="50" relative="1" as="geometry">
                        <mxPoint x="501" y="680" as="sourcePoint"/>
                        <mxPoint x="568" y="680" as="targetPoint"/>
                        <Array as="points"/>
                    </mxGeometry>
                </mxCell>
                <mxCell id="25" value="&lt;span style=&quot;font-size: 8px;&quot;&gt;São identicos&lt;br&gt;&lt;/span&gt;" style="text;html=1;strokeColor=none;fillColor=none;align=center;verticalAlign=middle;whiteSpace=wrap;rounded=0;fillStyle=auto;fontSize=12;spacingRight=0;spacingLeft=0;" vertex="1" parent="1">
                    <mxGeometry x="504" y="675" width="60" height="10" as="geometry"/>
                </mxCell>
                <mxCell id="64" value="&lt;font style=&quot;font-size: 9px;&quot;&gt;&lt;b&gt;Começo&lt;br&gt;&lt;/b&gt;&lt;/font&gt;" style="text;html=1;strokeColor=none;fillColor=none;align=center;verticalAlign=middle;whiteSpace=wrap;rounded=0;fillStyle=auto;fontSize=12;fontColor=#000000;glass=0;" vertex="1" parent="1">
                    <mxGeometry x="186" y="375" width="60" height="30" as="geometry"/>
                </mxCell>
                <mxCell id="66" value="&lt;font size=&quot;1&quot;&gt;&lt;b&gt;Final&lt;/b&gt;&lt;/font&gt;" style="text;html=1;strokeColor=none;fillColor=none;align=center;verticalAlign=middle;whiteSpace=wrap;rounded=0;fillStyle=auto;fontSize=12;fontColor=#000000;glass=0;" vertex="1" parent="1">
                    <mxGeometry x="184" y="736" width="60" height="30" as="geometry"/>
                </mxCell>
            </root>
        </mxGraphModel>
    </diagram>
</mxfile>